# xmcd
#
# Track frame offsets: 
#        150
#        12137
#        24462
#        36153
#        48381
#        58682
#        69973
#        79670
#        89944
#        98720
#        109314
#        119075
#        130144
#        140688
#        150956
#        161749
#        173457
#        184740
#        196801
#        208349
#
# Disc length: 2891 seconds
#
# Revision: 1
# Processed by: cddbd v1.5.2PL0 Copyright (c) Steve Scherf et al.
# Submitted via: ExactAudioCopy v1.3
#
DISCID=140b4914
DTITLE=Don Gibson - 80 Original Hits And Rarities_CD2
DYEAR=1900
DGENRE=Country
TTITLE0=I Must Forget You
TTITLE1=Run Boy
TTITLE2=Sweet Dreams
TTITLE3=The Road Of Life Alone
TTITLE4=What A Fool I Was For You
TTITLE5=I Ain't Gonna Waste My Time
TTITLE6=I Believed In You
TTITLE7=Ah-Ha
TTITLE8=Blue Blue Day
TTITLE9=I'm Gonna Fool Everybody
TTITLE10=I Ain't A-Studyin' You Baby
TTITLE11=You're The Only One For Me
TTITLE12=Everything Turns Out For The Best
TTITLE13=I Love You Still
TTITLE14=Sittin' Here Cryin'
TTITLE15=Too Soon To Know
TTITLE16=It Happens Everytime
TTITLE17=I Can't Stop Loving You
TTITLE18=Ice Cold Heart
TTITLE19=Sweet Sweet Girl
EXTD=
EXTT0=
EXTT1=
EXTT2=
EXTT3=
EXTT4=
EXTT5=
EXTT6=
EXTT7=
EXTT8=
EXTT9=
EXTT10=
EXTT11=
EXTT12=
EXTT13=
EXTT14=
EXTT15=
EXTT16=
EXTT17=
EXTT18=
EXTT19=
PLAYORDER=
